<svg width="152" height="152" viewBox="0 0 152 152" fill="none" xmlns="http://www.w3.org/2000/svg">
<line x1="3.7998" y1="83.9" x2="148.2" y2="83.9" stroke="#FF004C" stroke-width="7"/>
<circle cx="76" cy="76" r="72.5" stroke="white" stroke-width="7"/>
<path d="M107.278 66.0504L107.278 66.0502L83.7176 45.5421L83.7176 45.542C81.8393 43.907 80.5983 42.8306 79.5763 42.0704C78.5948 41.3404 78.0544 41.0888 77.6562 40.9716L107.278 66.0504ZM107.278 66.0504C109.404 67.901 109.916 68.3897 110.268 68.9057C110.637 69.4475 110.91 70.0467 111.077 70.6812C111.234 71.2811 111.267 71.9833 111.267 74.7929V101.883C111.267 104.213 111.264 105.759 111.183 106.952C111.103 108.108 110.963 108.637 110.827 108.965C110.238 110.377 109.11 111.504 107.684 112.091L107.683 112.092C107.349 112.23 106.81 112.37 105.642 112.45C104.439 112.531 102.882 112.533 100.54 112.533C98.199 112.533 96.6423 112.531 95.4402 112.45C94.2737 112.37 93.7352 112.23 93.4002 112.092L93.3995 112.091C91.973 111.504 90.8444 110.377 90.2566 108.965C90.1206 108.639 89.9801 108.109 89.9007 106.952C89.8189 105.759 89.8167 104.213 89.8167 101.883V96.9998C89.8167 89.3775 83.6113 83.2341 76.0001 83.2341C68.3888 83.2341 62.1834 89.3775 62.1834 96.9998V101.883C62.1834 104.213 62.1811 105.759 62.0991 106.952C62.0197 108.109 61.8791 108.638 61.743 108.965L61.7429 108.965C61.155 110.377 60.0267 111.504 58.6006 112.091L58.6002 112.092C58.2653 112.23 57.7263 112.37 56.5588 112.45C55.356 112.531 53.7986 112.533 51.4571 112.533C49.1157 112.533 47.5589 112.531 46.3569 112.45C45.1904 112.37 44.6518 112.23 44.3166 112.092L44.3162 112.091M107.278 66.0504L44.3162 112.091M68.2912 45.5352L68.2911 45.5353L44.7233 66.0502L44.7233 66.0502C42.5971 67.901 42.0861 68.3894 41.7343 68.905L68.2912 45.5352ZM68.2912 45.5352C70.1668 43.9025 71.4057 42.8277 72.4262 42.0686C73.4062 41.3396 73.9455 41.0886 74.343 40.9716L68.2912 45.5352ZM44.3162 112.091C42.8902 111.504 41.7614 110.377 41.1734 108.965L44.3162 112.091ZM74.3431 40.9716C75.4231 40.6539 76.576 40.6539 77.6561 40.9716L74.3431 40.9716ZM40.7334 74.7929C40.7334 71.9744 40.764 71.2789 40.921 70.6809L41.1733 108.965C41.0372 108.638 40.8967 108.108 40.8174 106.952C40.7356 105.759 40.7334 104.213 40.7334 101.883V74.7929ZM40.9211 70.6804C41.0858 70.0538 41.36 69.4536 41.7343 68.905L40.9211 70.6804Z" fill="#202020" stroke="#FF004C" stroke-width="8" stroke-linecap="round" stroke-linejoin="round"/>
</svg>
